<svg width="232" height="66" viewBox="0 0 232 66" fill="none" xmlns="http://www.w3.org/2000/svg">
<path d="M200.422 0.278572C202.391 0.278572 204.273 1.09348 205.619 2.5298L229.468 27.9684C232.037 30.7082 232.037 34.9717 229.468 37.7116L205.619 63.1502C204.273 64.5864 202.391 65.4014 200.422 65.4014H31.5769C29.6082 65.4014 27.7272 64.5864 26.3806 63.1502L2.53193 37.7116C-0.0366821 34.9717 -0.0366818 30.7082 2.53192 27.9684L26.3806 2.52979C27.7272 1.09347 29.6082 0.278564 31.5769 0.278564L200.422 0.278572Z" fill="#2E2E2E" fill-opacity="0.3"/>
<path d="M200.422 0.787362C202.251 0.787362 203.998 1.54406 205.248 2.87778L229.097 28.3164C231.482 30.8606 231.482 34.8194 229.097 37.3636L205.248 62.8022C203.998 64.1359 202.251 64.8926 200.422 64.8926H31.577C29.7488 64.8926 28.0021 64.1359 26.7518 62.8022L2.90311 37.3636C0.517975 34.8194 0.517975 30.8606 2.90311 28.3164L26.7518 2.87777C28.0021 1.54406 29.7488 0.787354 31.577 0.787354L200.422 0.787362Z" stroke="white" stroke-opacity="0.05" stroke-width="1.01754"/>
</svg>
