<svg width="16" height="17" viewBox="0 0 16 17" fill="none" xmlns="http://www.w3.org/2000/svg">
<rect width="16" height="16" transform="translate(0 0.5)" fill="#031017"/>
<path d="M7.99676 13.1673C7.85426 13.1673 7.73579 13.1194 7.64134 13.0236C7.5469 12.9277 7.49967 12.809 7.49967 12.6673V9.00065H3.83301C3.69134 9.00065 3.57259 8.95246 3.47676 8.85607C3.38092 8.75967 3.33301 8.64022 3.33301 8.49773C3.33301 8.35523 3.38092 8.23676 3.47676 8.14232C3.57259 8.04787 3.69134 8.00065 3.83301 8.00065H7.49967V4.33398C7.49967 4.19232 7.54787 4.07357 7.64426 3.97773C7.74066 3.8819 7.8601 3.83398 8.00259 3.83398C8.14509 3.83398 8.26356 3.8819 8.35801 3.97773C8.45245 4.07357 8.49967 4.19232 8.49967 4.33398V8.00065H12.1663C12.308 8.00065 12.4268 8.04884 12.5226 8.14523C12.6184 8.24163 12.6663 8.36108 12.6663 8.50357C12.6663 8.64607 12.6184 8.76454 12.5226 8.85898C12.4268 8.95343 12.308 9.00065 12.1663 9.00065H8.49967V12.6673C8.49967 12.809 8.45148 12.9277 8.35509 13.0236C8.25869 13.1194 8.13925 13.1673 7.99676 13.1673Z" fill="white"/>
</svg>
