<svg width="774" height="74" viewBox="0 0 774 74" fill="none" xmlns="http://www.w3.org/2000/svg">
<g clip-path="url(#clip0_21_14)">
<g clip-path="url(#clip1_21_14)">
<path d="M773.756 66.7321L767.542 72.9462L761.328 66.7321L767.542 60.5179L773.756 66.7321ZM710.807 65.6557H767.542V67.8084H710.807V65.6557ZM73.3133 7.62939e-06H633.677V2.15266H73.3133V7.62939e-06ZM646.947 5.69904L699.098 60.6273L697.537 62.1094L645.386 7.18114L646.947 5.69904ZM633.677 7.62939e-06C638.695 7.62939e-06 643.492 2.06042 646.947 5.69904L645.386 7.18114C642.338 3.97057 638.104 2.15266 633.677 2.15266V7.62939e-06ZM710.807 67.8084C705.789 67.8084 700.992 65.748 697.537 62.1094L699.098 60.6273C702.147 63.8378 706.379 65.6557 710.807 65.6557V67.8084Z" fill="#F1C42E"/>
</g>
</g>
<defs>
<clipPath id="clip0_21_14">
<rect width="774" height="73.19" fill="white" transform="matrix(-1 0 0 -1 774 73.19)"/>
</clipPath>
<clipPath id="clip1_21_14">
<rect width="700.687" height="73.19" fill="white" transform="matrix(-1 0 0 -1 774 73.19)"/>
</clipPath>
</defs>
</svg>
