<svg width="135" height="97" viewBox="0 0 135 97" fill="none" xmlns="http://www.w3.org/2000/svg">
<g clip-path="url(#clip0_2001_81)">
<g clip-path="url(#clip1_2001_81)">
<g clip-path="url(#clip2_2001_81)">
<path d="M1.14538 0C0.516445 0 0.0065918 0.509854 0.0065918 1.13879C0.0065918 1.76772 0.516445 2.27758 1.14538 2.27758V0ZM133.338 74.1152V64.817H124.041V74.1152H133.338ZM1.14538 2.27758H52.8151V0H1.14538V2.27758ZM64.8938 7.28073L127.884 70.2713L129.495 68.6608L66.5043 5.67023L64.8938 7.28073ZM52.8151 2.27758C57.3455 2.27758 61.6903 4.07726 64.8938 7.28073L66.5043 5.67023C62.8737 2.03965 57.9496 0 52.8151 0V2.27758Z" fill="#F1C42E"/>
</g>
</g>
</g>
<path d="M121.241 94.3105C120.377 94.3105 119.641 94.0755 119.034 93.6054C118.426 93.1315 117.962 92.4455 117.641 91.5473C117.32 90.6453 117.159 89.5561 117.159 88.2796C117.159 87.0107 117.32 85.9272 117.641 85.029C117.965 84.1271 118.432 83.4391 119.039 82.9652C119.651 82.4875 120.385 82.2486 121.241 82.2486C122.097 82.2486 122.829 82.4875 123.437 82.9652C124.048 83.4391 124.514 84.1271 124.835 85.029C125.16 85.9272 125.323 87.0107 125.323 88.2796C125.323 89.5561 125.162 90.6453 124.841 91.5473C124.52 92.4455 124.056 93.1315 123.448 93.6054C122.84 94.0755 122.105 94.3105 121.241 94.3105ZM121.241 93.0493C122.097 93.0493 122.762 92.6365 123.236 91.811C123.71 90.9855 123.947 89.8083 123.947 88.2796C123.947 87.2629 123.838 86.3973 123.62 85.6826C123.406 84.9679 123.096 84.4233 122.691 84.0487C122.29 83.6742 121.806 83.4869 121.241 83.4869C120.392 83.4869 119.729 83.9054 119.252 84.7424C118.774 85.5756 118.535 86.7546 118.535 88.2796C118.535 89.2962 118.642 90.1599 118.856 90.8708C119.07 91.5817 119.378 92.1225 119.779 92.4932C120.184 92.864 120.671 93.0493 121.241 93.0493ZM131.629 82.4091V94.15H130.207V83.8997H130.138L127.272 85.803V84.3583L130.207 82.4091H131.629Z" fill="white"/>
<defs>
<clipPath id="clip0_2001_81">
<rect width="134.39" height="75.16" fill="white"/>
</clipPath>
<clipPath id="clip1_2001_81">
<rect width="134.39" height="75.16" fill="white"/>
</clipPath>
<clipPath id="clip2_2001_81">
<rect width="134.377" height="75.16" fill="white" transform="translate(0.0065918)"/>
</clipPath>
</defs>
</svg>
