<svg width="135" height="76" viewBox="0 0 135 76" fill="none" xmlns="http://www.w3.org/2000/svg">
<g clip-path="url(#clip0_2001_84)">
<g clip-path="url(#clip1_2001_84)">
<g clip-path="url(#clip2_2001_84)">
<g filter="url(#filter0_d_2001_84)">
<path d="M5.54298 66.9687C4.95402 66.9687 4.47656 66.4912 4.47656 65.9022C4.47656 65.3133 4.95402 64.8358 5.54298 64.8358V66.9687ZM129.39 20.0139L129.279 28.7204L120.573 28.6102L120.684 19.9037L129.39 20.0139ZM5.54298 64.8358H75.3835V66.9687H5.54298V64.8358ZM86.5504 60.2929L124.237 23.5485L125.726 25.0756L88.0394 61.82L86.5504 60.2929ZM75.3835 64.8358C79.5558 64.8358 83.5631 63.2056 86.5504 60.2929L88.0394 61.82C84.6537 65.1211 80.1122 66.9687 75.3835 66.9687V64.8358Z" fill="#F1C42E"/>
</g>
</g>
</g>
</g>
<path d="M119.578 13.167C118.679 13.167 117.914 12.9224 117.281 12.4332C116.649 11.9401 116.166 11.2261 115.832 10.2915C115.497 9.35284 115.33 8.21932 115.33 6.89091C115.33 5.57045 115.497 4.4429 115.832 3.50824C116.17 2.5696 116.655 1.85369 117.287 1.36051C117.924 0.863352 118.687 0.614773 119.578 0.614773C120.469 0.614773 121.231 0.863352 121.863 1.36051C122.499 1.85369 122.985 2.5696 123.319 3.50824C123.657 4.4429 123.826 5.57045 123.826 6.89091C123.826 8.21932 123.659 9.35284 123.325 10.2915C122.991 11.2261 122.507 11.9401 121.875 12.4332C121.243 12.9224 120.477 13.167 119.578 13.167ZM119.578 11.8545C120.469 11.8545 121.161 11.425 121.654 10.5659C122.147 9.70682 122.394 8.48182 122.394 6.89091C122.394 5.83295 122.281 4.9321 122.054 4.18835C121.831 3.4446 121.509 2.87784 121.087 2.48807C120.67 2.0983 120.167 1.90341 119.578 1.90341C118.695 1.90341 118.005 2.33892 117.508 3.20994C117.011 4.07699 116.762 5.30398 116.762 6.89091C116.762 7.94886 116.874 8.84773 117.096 9.5875C117.319 10.3273 117.639 10.8901 118.057 11.2759C118.478 11.6616 118.986 11.8545 119.578 11.8545ZM126.093 13V11.9261L130.126 7.51136C130.599 6.99432 130.989 6.54489 131.295 6.16307C131.601 5.77727 131.828 5.41534 131.975 5.07727C132.126 4.73523 132.202 4.37727 132.202 4.00341C132.202 3.57386 132.099 3.20199 131.892 2.88778C131.689 2.57358 131.411 2.33097 131.057 2.15994C130.703 1.98892 130.305 1.90341 129.863 1.90341C129.394 1.90341 128.984 2.00085 128.634 2.19574C128.288 2.38665 128.02 2.65511 127.829 3.00114C127.642 3.34716 127.549 3.75284 127.549 4.21818H126.141C126.141 3.50227 126.306 2.87386 126.636 2.33295C126.966 1.79205 127.415 1.37045 127.984 1.06818C128.557 0.765909 129.199 0.614773 129.911 0.614773C130.627 0.614773 131.261 0.765909 131.814 1.06818C132.367 1.37045 132.801 1.77812 133.115 2.29119C133.429 2.80426 133.586 3.375 133.586 4.00341C133.586 4.45284 133.505 4.89233 133.341 5.32188C133.182 5.74744 132.904 6.22273 132.506 6.74773C132.112 7.26875 131.566 7.90511 130.866 8.65682L128.121 11.592V11.6875H133.801V13H126.093Z" fill="white"/>
<defs>
<filter id="filter0_d_2001_84" x="0.210902" y="19.9037" width="133.445" height="55.5963" filterUnits="userSpaceOnUse" color-interpolation-filters="sRGB">
<feFlood flood-opacity="0" result="BackgroundImageFix"/>
<feColorMatrix in="SourceAlpha" type="matrix" values="0 0 0 0 0 0 0 0 0 0 0 0 0 0 0 0 0 0 127 0" result="hardAlpha"/>
<feOffset dy="4.26566"/>
<feGaussianBlur stdDeviation="2.13283"/>
<feComposite in2="hardAlpha" operator="out"/>
<feColorMatrix type="matrix" values="0 0 0 0 0 0 0 0 0 0 0 0 0 0 0 0 0 0 0.25 0"/>
<feBlend mode="normal" in2="BackgroundImageFix" result="effect1_dropShadow_2001_84"/>
<feBlend mode="normal" in="SourceGraphic" in2="effect1_dropShadow_2001_84" result="shape"/>
</filter>
<clipPath id="clip0_2001_84">
<rect width="134.39" height="56.52" fill="white" transform="translate(0.200195 18.98)"/>
</clipPath>
<clipPath id="clip1_2001_84">
<rect width="134.39" height="56.52" fill="white" transform="translate(0.200195 18.98)"/>
</clipPath>
<clipPath id="clip2_2001_84">
<rect width="134.368" height="56.52" fill="white" transform="translate(0.210938 18.98)"/>
</clipPath>
</defs>
</svg>
