<svg width="132" height="201" viewBox="0 0 132 201" fill="none" xmlns="http://www.w3.org/2000/svg">
<g clip-path="url(#clip0_0_8692)">
<g clip-path="url(#clip1_0_8692)">
<mask id="mask0_0_8692" style="mask-type:luminance" maskUnits="userSpaceOnUse" x="0" y="0" width="132" height="201">
<path d="M131.993 0.209961H0V200.6H131.993V0.209961Z" fill="white"/>
</mask>
<g mask="url(#mask0_0_8692)">
<path d="M0.503906 1.31152V11.109H10.3014V1.31152H0.503906ZM69.5994 199.4V200.6H71.9993V199.4H69.5994ZM71.9993 193.4V79.5595H69.5994V193.4H71.9993ZM66.0246 65.1353L6.25113 5.36178L4.55415 7.05876L64.3276 66.8323L66.0246 65.1353ZM69.5994 193.4V199.4H71.9993V193.4H69.5994ZM71.9993 79.5595C71.9993 74.1494 69.8501 68.9608 66.0246 65.1353L64.3276 66.8323C67.7031 70.2078 69.5994 74.7859 69.5994 79.5595H71.9993Z" fill="#F1C42E"/>
<path d="M119.442 34.0803L126.321 41.0558L119.346 47.9358L112.466 40.9603L119.442 34.0803ZM119.244 62.757L118.044 62.7728L118.044 62.7608V62.7487L119.244 62.757ZM75.4124 179.947L112.861 147.037L114.445 148.841L76.9966 181.749L75.4124 179.947ZM118.977 133.279L118.044 62.7728L120.444 62.7411L121.376 133.247L118.977 133.279ZM118.044 62.7487L118.194 40.9998L120.594 41.0163L120.444 62.7652L118.044 62.7487ZM112.861 147.037C116.812 143.566 119.047 138.538 118.977 133.279L121.376 133.247C121.455 139.208 118.923 144.905 114.445 148.841L112.861 147.037ZM76.9966 181.749C73.8182 184.542 71.9963 188.57 71.9963 192.8H69.5964C69.5964 187.88 71.7155 183.196 75.4124 179.947L76.9966 181.749Z" fill="#F1C42E"/>
</g>
</g>
</g>
<defs>
<clipPath id="clip0_0_8692">
<rect width="132" height="200.39" fill="white" transform="translate(0 0.209961)"/>
</clipPath>
<clipPath id="clip1_0_8692">
<rect width="131.993" height="200.39" fill="white" transform="translate(0 0.209961)"/>
</clipPath>
</defs>
</svg>
