<svg width="76" height="217" viewBox="0 0 76 217" fill="none" xmlns="http://www.w3.org/2000/svg">
<g clip-path="url(#clip0_0_7995)">
<g clip-path="url(#clip1_0_7995)">
<path d="M0.595703 1.70355L0.621518 11.5002L10.4181 11.4744L10.3923 1.67773L0.595703 1.70355ZM41.5021 101.376V49.183H39.1024V101.376H41.5021ZM35.4898 34.722L6.35311 5.73831L4.66075 7.4396L33.7976 36.4232L35.4898 34.722ZM41.5021 49.183C41.5021 43.7546 39.3384 38.5502 35.4898 34.722L33.7976 36.4232C37.1932 39.8012 39.1024 44.3933 39.1024 49.183H41.5021Z" fill="#1B1B1B"/>
<path d="M75.7966 64.0825V73.8792H66V64.0825H75.7966ZM4.30713 216.561V142.324H6.70681V216.561H4.30713ZM10.2814 127.901L70.0499 68.1325L71.7468 69.8293L11.9782 129.598L10.2814 127.901ZM4.30713 142.324C4.30713 136.915 6.45612 131.727 10.2814 127.901L11.9782 129.598C8.60298 132.973 6.70681 137.551 6.70681 142.324H4.30713Z" fill="#F1C42E"/>
</g>
</g>
<defs>
<clipPath id="clip0_0_7995">
<rect width="75.59" height="216" fill="white" transform="translate(0.410156 0.589844)"/>
</clipPath>
<clipPath id="clip1_0_7995">
<rect width="75.59" height="215.971" fill="white" transform="translate(0.410156 0.589844)"/>
</clipPath>
</defs>
</svg>
