<svg width="701" height="74" viewBox="0 0 701 74" fill="none" xmlns="http://www.w3.org/2000/svg">
<g clip-path="url(#clip0_0_7933)">
<path d="M0.243896 6.45781L6.45805 0.243652L12.6722 6.45781L6.45805 12.672L0.243896 6.45781ZM63.1934 7.53414H6.45805V5.38149H63.1934V7.53414ZM700.687 73.1899H140.323V71.0372H700.687V73.1899ZM127.053 67.4908L74.9016 12.5626L76.4628 11.0805L128.614 66.0087L127.053 67.4908ZM140.323 73.1899C135.305 73.1899 130.508 71.1295 127.053 67.4908L128.614 66.0087C131.662 69.2193 135.896 71.0372 140.323 71.0372V73.1899ZM63.1934 5.38149C68.2108 5.38149 73.0081 7.44184 76.4628 11.0805L74.9016 12.5626C71.8534 9.35209 67.6206 7.53414 63.1934 7.53414V5.38149Z" fill="#F1C42E"/>
</g>
<defs>
<clipPath id="clip0_0_7933">
<rect width="700.687" height="73.19" fill="white"/>
</clipPath>
</defs>
</svg>
