<svg width="139" height="78" viewBox="0 0 139 78" fill="none" xmlns="http://www.w3.org/2000/svg">
<g clip-path="url(#clip0_0_8036)">
<path d="M1.18951 0.359863C0.54362 0.359863 0.0200195 0.883463 0.0200195 1.52935C0.0200195 2.17524 0.54362 2.69885 1.18951 2.69885V0.359863ZM136.946 76.4733V66.9244H127.399V76.4733H136.946ZM1.18951 2.69885H54.2524V0.359863H1.18951V2.69885ZM66.6567 7.83689L131.346 72.5258L132.999 70.8719L68.3106 6.18297L66.6567 7.83689ZM54.2524 2.69885C58.9049 2.69885 63.3668 4.54705 66.6567 7.83689L68.3106 6.18297C64.5821 2.4545 59.5253 0.359863 54.2524 0.359863V2.69885Z" fill="#F1C42E"/>
</g>
<defs>
<clipPath id="clip0_0_8036">
<rect width="138" height="77.1864" fill="white" transform="translate(0.0200195 0.359863)"/>
</clipPath>
</defs>
</svg>
