<svg width="79" height="218" viewBox="0 0 79 218" fill="none" xmlns="http://www.w3.org/2000/svg">
<g clip-path="url(#clip0_0_8581)">
<g clip-path="url(#clip1_0_8581)">
<path d="M3.26807 1.31439L3.29388 11.1123L13.0918 11.0865L13.066 1.28857L3.26807 1.31439ZM44.18 101.001V48.8H41.78V101.001H44.18ZM38.1669 34.3371L9.02622 5.34969L7.33365 7.05121L36.4743 36.0386L38.1669 34.3371ZM44.18 48.8C44.18 43.371 42.0159 38.1659 38.1669 34.3371L36.4743 36.0386C39.8705 39.417 41.78 44.0097 41.78 48.8H44.18Z" fill="#F1C42E"/>
<path d="M9.37998 215.6V216.8H6.97998V215.6H9.37998ZM78.479 63.7015V73.4995H68.681V63.7015H78.479ZM6.97998 215.6V141.952H9.37998V215.6H6.97998ZM12.955 127.528L72.7315 67.752L74.4285 69.4491L14.6521 129.225L12.955 127.528ZM6.97998 141.952C6.97998 136.543 9.12926 131.354 12.955 127.528L14.6521 129.225C11.2764 132.601 9.37998 137.179 9.37998 141.952H6.97998Z" fill="#F1C42E"/>
</g>
</g>
<defs>
<clipPath id="clip0_0_8581">
<rect width="78" height="217.19" fill="white" transform="translate(0.97998 0.199951)"/>
</clipPath>
<clipPath id="clip1_0_8581">
<rect width="78" height="217.2" fill="white" transform="translate(0.97998 0.199951)"/>
</clipPath>
</defs>
</svg>
