<svg width="66" height="218" viewBox="0 0 66 218" fill="none" xmlns="http://www.w3.org/2000/svg">
<g clip-path="url(#clip0_0_8027)">
<path d="M1.93604 1.39294L1.95788 9.68349L10.2484 9.66165L10.2266 1.37109L1.93604 1.39294ZM36.5538 85.7427V41.5731H34.523V85.7427H36.5538ZM31.4658 29.3353L6.80832 4.80742L5.37615 6.24717L30.0336 30.775L31.4658 29.3353ZM36.5538 41.5731C36.5538 36.9793 34.7227 32.575 31.4658 29.3353L30.0336 30.775C32.9074 33.6336 34.523 37.5198 34.523 41.5731H36.5538Z" fill="#1B1B1B"/>
<path d="M7.10792 182.712V183.727H5.07715V182.712H7.10792ZM65.5763 54.1821V62.4727H57.2857V54.1821H65.5763ZM5.07715 182.712V120.394H7.10792V182.712H5.07715ZM10.1329 108.189L60.713 57.6095L62.149 59.0454L11.5689 109.625L10.1329 108.189ZM5.07715 120.394C5.07715 115.817 6.89577 111.426 10.1329 108.189L11.5689 109.625C8.71258 112.481 7.10792 116.355 7.10792 120.394H5.07715Z" fill="#F1C42E"/>
</g>
<defs>
<clipPath id="clip0_0_8027">
<rect width="66" height="217.19" fill="white" transform="translate(0 0.449951)"/>
</clipPath>
</defs>
</svg>
