<svg width="284" height="74" viewBox="0 0 284 74" fill="none" xmlns="http://www.w3.org/2000/svg">
<g clip-path="url(#clip0_0_8008)">
<g clip-path="url(#clip1_0_8008)">
<path d="M282.439 1.68921L272.642 1.69223L272.645 11.4889L282.442 11.4858L282.439 1.68921ZM152.759 53.3826H224.021V50.983H152.759V53.3826ZM238.449 47.404L278.39 7.43718L276.694 5.74087L236.751 45.7076L238.449 47.404ZM224.021 53.3826C229.433 53.3826 234.623 51.2319 238.449 47.404L236.751 45.7076C233.376 49.0853 228.796 50.983 224.021 50.983V53.3826Z" fill="#1B1B1B"/>
<path d="M173.255 72.8257H163.459V63.029H173.255V72.8257ZM0.379883 5.3892L99.0668 5.38916V7.78883L0.379884 7.78887L0.379883 5.3892ZM113.49 11.3634L169.205 67.079L167.509 68.7758L111.793 13.0602L113.49 11.3634ZM99.0668 5.38916C104.476 5.38916 109.665 7.53814 113.49 11.3634L111.793 13.0602C108.418 9.68499 103.84 7.78883 99.0668 7.78883V5.38916Z" fill="#F1C42E"/>
</g>
</g>
<defs>
<clipPath id="clip0_0_8008">
<rect width="283.19" height="73.19" fill="white" transform="translate(0.379883 0.589844)"/>
</clipPath>
<clipPath id="clip1_0_8008">
<rect width="283.161" height="73.19" fill="white" transform="translate(0.379883 0.589844)"/>
</clipPath>
</defs>
</svg>
