<svg width="135" height="95" viewBox="0 0 135 95" fill="none" xmlns="http://www.w3.org/2000/svg">
<path d="M5.25 92.3171C4.35114 92.3171 3.58551 92.0725 2.95312 91.5833C2.32074 91.0901 1.8375 90.3762 1.50341 89.4415C1.16932 88.5029 1.00227 87.3693 1.00227 86.0409C1.00227 84.7205 1.16932 83.5929 1.50341 82.6583C1.84148 81.7196 2.3267 81.0037 2.95909 80.5105C3.59545 80.0134 4.35909 79.7648 5.25 79.7648C6.14091 79.7648 6.90256 80.0134 7.53494 80.5105C8.17131 81.0037 8.65653 81.7196 8.99062 82.6583C9.32869 83.5929 9.49773 84.7205 9.49773 86.0409C9.49773 87.3693 9.33068 88.5029 8.99659 89.4415C8.6625 90.3762 8.17926 91.0901 7.54687 91.5833C6.91449 92.0725 6.14886 92.3171 5.25 92.3171ZM5.25 91.0046C6.14091 91.0046 6.83295 90.575 7.32614 89.7159C7.81932 88.8568 8.06591 87.6318 8.06591 86.0409C8.06591 84.983 7.95256 84.0821 7.72585 83.3384C7.50312 82.5946 7.18097 82.0279 6.75937 81.6381C6.34176 81.2483 5.83864 81.0534 5.25 81.0534C4.36705 81.0534 3.67699 81.4889 3.17983 82.36C2.68267 83.227 2.43409 84.454 2.43409 86.0409C2.43409 87.0989 2.54545 87.9978 2.76818 88.7375C2.99091 89.4773 3.31108 90.0401 3.72869 90.4259C4.15028 90.8117 4.65739 91.0046 5.25 91.0046ZM15.8932 92.3171C15.1057 92.3171 14.4037 92.1818 13.7872 91.9114C13.1747 91.6409 12.6875 91.2651 12.3256 90.7838C11.9676 90.2986 11.7727 89.7358 11.7409 89.0955H13.2443C13.2761 89.4892 13.4114 89.8293 13.65 90.1156C13.8886 90.398 14.2009 90.6168 14.5866 90.7719C14.9724 90.927 15.4 91.0046 15.8693 91.0046C16.3943 91.0046 16.8597 90.9131 17.2653 90.7301C17.671 90.5472 17.9892 90.2926 18.2199 89.9665C18.4506 89.6404 18.5659 89.2625 18.5659 88.833C18.5659 88.3835 18.4545 87.9878 18.2318 87.6458C18.0091 87.2997 17.683 87.0293 17.2534 86.8344C16.8239 86.6395 16.2989 86.5421 15.6784 86.5421H14.7V85.2296H15.6784C16.1636 85.2296 16.5892 85.1421 16.9551 84.9671C17.325 84.7921 17.6134 84.5455 17.8202 84.2273C18.031 83.9091 18.1364 83.5353 18.1364 83.1057C18.1364 82.6921 18.0449 82.3321 17.8619 82.0259C17.679 81.7196 17.4205 81.481 17.0864 81.31C16.7562 81.1389 16.3665 81.0534 15.917 81.0534C15.4955 81.0534 15.0977 81.131 14.7239 81.2861C14.354 81.4372 14.0517 81.658 13.817 81.9483C13.5824 82.2347 13.4551 82.5807 13.4352 82.9864H12.0034C12.0273 82.346 12.2202 81.7853 12.5821 81.304C12.944 80.8188 13.4173 80.4409 14.002 80.1705C14.5906 79.9 15.2369 79.7648 15.9409 79.7648C16.6966 79.7648 17.3449 79.9179 17.8858 80.2242C18.4267 80.5264 18.8423 80.9262 19.1327 81.4233C19.423 81.9205 19.5682 82.4574 19.5682 83.0341C19.5682 83.7222 19.3872 84.3088 19.0253 84.7941C18.6673 85.2793 18.1801 85.6154 17.5636 85.8023V85.8978C18.3352 86.025 18.9378 86.3531 19.3713 86.8821C19.8048 87.4071 20.0216 88.0574 20.0216 88.833C20.0216 89.4972 19.8406 90.0938 19.4787 90.6228C19.1207 91.1478 18.6315 91.5614 18.0111 91.8637C17.3906 92.1659 16.6847 92.3171 15.8932 92.3171Z" fill="white"/>
<g clip-path="url(#clip0_2001_82)">
<g clip-path="url(#clip1_2001_82)">
<path d="M133.245 0C133.874 0 134.384 0.509854 134.384 1.13879C134.384 1.76772 133.874 2.27758 133.245 2.27758V0ZM1.05199 74.1152V64.817H10.3491V74.1152H1.05199ZM133.245 2.27758H81.575V0H133.245V2.27758ZM69.4963 7.28073L6.50564 70.2713L4.89539 68.6608L67.8858 5.67023L69.4963 7.28073ZM81.575 2.27758C77.0447 2.27758 72.6998 4.07726 69.4963 7.28073L67.8858 5.67023C71.5164 2.03965 76.4405 0 81.575 0V2.27758Z" fill="#F1C42E"/>
</g>
</g>
<defs>
<clipPath id="clip0_2001_82">
<rect width="134.39" height="75.16" fill="white" transform="matrix(-1 0 0 1 134.39 0)"/>
</clipPath>
<clipPath id="clip1_2001_82">
<rect width="134.377" height="75.16" fill="white" transform="matrix(-1 0 0 1 134.384 0)"/>
</clipPath>
</defs>
</svg>
