<svg width="135" height="75" viewBox="0 0 135 75" fill="none" xmlns="http://www.w3.org/2000/svg">
<g clip-path="url(#clip0_2001_85)">
<g clip-path="url(#clip1_2001_85)">
<g clip-path="url(#clip2_2001_85)">
<g filter="url(#filter0_d_2001_85)">
<path d="M129.047 65.9887C129.636 65.9887 130.114 65.5112 130.114 64.9223C130.114 64.3333 129.636 63.8559 129.047 63.8559V65.9887ZM5.20006 19.0339L5.31097 27.7405L14.0172 27.6302L13.9063 18.9237L5.20006 19.0339ZM129.047 63.8559H59.2066V65.9887H129.047V63.8559ZM48.0397 59.3129L10.353 22.5685L8.86427 24.0956L46.5507 60.84L48.0397 59.3129ZM59.2066 63.8559C55.0343 63.8559 51.027 62.2256 48.0397 59.3129L46.5507 60.84C49.9364 64.1411 54.4779 65.9887 59.2066 65.9887V63.8559Z" fill="#F1C42E"/>
</g>
</g>
</g>
</g>
<path d="M5.25 14.167C4.35114 14.167 3.58551 13.9224 2.95312 13.4332C2.32074 12.9401 1.8375 12.2261 1.50341 11.2915C1.16932 10.3528 1.00227 9.21932 1.00227 7.89091C1.00227 6.57045 1.16932 5.4429 1.50341 4.50824C1.84148 3.5696 2.3267 2.85369 2.95909 2.36051C3.59545 1.86335 4.35909 1.61477 5.25 1.61477C6.14091 1.61477 6.90256 1.86335 7.53494 2.36051C8.17131 2.85369 8.65653 3.5696 8.99062 4.50824C9.32869 5.4429 9.49773 6.57045 9.49773 7.89091C9.49773 9.21932 9.33068 10.3528 8.99659 11.2915C8.6625 12.2261 8.17926 12.9401 7.54687 13.4332C6.91449 13.9224 6.14886 14.167 5.25 14.167ZM5.25 12.8545C6.14091 12.8545 6.83295 12.425 7.32614 11.5659C7.81932 10.7068 8.06591 9.48182 8.06591 7.89091C8.06591 6.83295 7.95256 5.9321 7.72585 5.18835C7.50312 4.4446 7.18097 3.87784 6.75937 3.48807C6.34176 3.0983 5.83864 2.90341 5.25 2.90341C4.36705 2.90341 3.67699 3.33892 3.17983 4.20994C2.68267 5.07699 2.43409 6.30398 2.43409 7.89091C2.43409 8.94886 2.54545 9.84773 2.76818 10.5875C2.99091 11.3273 3.31108 11.8901 3.72869 12.2759C4.15028 12.6616 4.65739 12.8545 5.25 12.8545ZM11.4784 11.4943V10.2773L16.8477 1.78182H17.7307V3.66705H17.1341L13.0773 10.0864V10.1818H20.308V11.4943H11.4784ZM17.2295 14V11.1244V10.5577V1.78182H18.6375V14H17.2295Z" fill="white"/>
<defs>
<filter id="filter0_d_2001_85" x="0.934291" y="18.9237" width="133.445" height="55.5963" filterUnits="userSpaceOnUse" color-interpolation-filters="sRGB">
<feFlood flood-opacity="0" result="BackgroundImageFix"/>
<feColorMatrix in="SourceAlpha" type="matrix" values="0 0 0 0 0 0 0 0 0 0 0 0 0 0 0 0 0 0 127 0" result="hardAlpha"/>
<feOffset dy="4.26566"/>
<feGaussianBlur stdDeviation="2.13283"/>
<feComposite in2="hardAlpha" operator="out"/>
<feColorMatrix type="matrix" values="0 0 0 0 0 0 0 0 0 0 0 0 0 0 0 0 0 0 0.25 0"/>
<feBlend mode="normal" in2="BackgroundImageFix" result="effect1_dropShadow_2001_85"/>
<feBlend mode="normal" in="SourceGraphic" in2="effect1_dropShadow_2001_85" result="shape"/>
</filter>
<clipPath id="clip0_2001_85">
<rect width="134.39" height="56.52" fill="white" transform="matrix(-1 0 0 1 134.39 18)"/>
</clipPath>
<clipPath id="clip1_2001_85">
<rect width="134.39" height="56.52" fill="white" transform="matrix(-1 0 0 1 134.39 18)"/>
</clipPath>
<clipPath id="clip2_2001_85">
<rect width="134.368" height="56.52" fill="white" transform="matrix(-1 0 0 1 134.379 18)"/>
</clipPath>
</defs>
</svg>
