<svg width="105" height="317" viewBox="0 0 105 317" fill="none" xmlns="http://www.w3.org/2000/svg">
<g clip-path="url(#clip0_0_8719)">
<g clip-path="url(#clip1_0_8719)">
<mask id="mask0_0_8719" style="mask-type:luminance" maskUnits="userSpaceOnUse" x="0" y="0" width="105" height="317">
<path d="M105 0.0302734H0.609863V316.8H105V0.0302734Z" fill="white"/>
</mask>
<g mask="url(#mask0_0_8719)">
<path d="M6.49756 -0.0557277L6.52338 9.74126L16.3203 9.71545L16.2945 -0.081543L6.49756 -0.0557277ZM47.4055 99.6208V47.4254H45.0057V99.6208H47.4055ZM41.393 32.9639L12.2552 3.97918L10.5628 5.68053L39.7006 34.6652L41.393 32.9639ZM47.4055 47.4254C47.4055 41.9969 45.2416 36.7923 41.393 32.9639L39.7006 34.6652C43.0965 38.0433 45.0057 42.6356 45.0057 47.4254H47.4055Z" fill="#F1C42E"/>
<path d="M81.7011 62.3254V72.1225H71.9041V62.3254H81.7011ZM48.6053 316.2V317.4H46.2055V316.2H48.6053ZM10.209 246.454V140.569H12.6088V246.454H10.209ZM16.1835 126.147L75.9542 66.3755L77.651 68.0724L17.8803 127.843L16.1835 126.147ZM17.8803 259.18L42.6308 283.932L40.934 285.628L16.1835 260.877L17.8803 259.18ZM48.6053 298.354V316.2H46.2055V298.354H48.6053ZM42.6308 283.932C46.4562 287.757 48.6053 292.945 48.6053 298.354H46.2055C46.2055 293.581 44.3092 289.004 40.934 285.628L42.6308 283.932ZM10.209 140.569C10.209 135.16 12.3581 129.972 16.1835 126.147L17.8803 127.843C14.5051 131.219 12.6088 135.796 12.6088 140.569H10.209ZM12.6088 246.454C12.6088 251.228 14.5051 255.805 17.8803 259.18L16.1835 260.877C12.3581 257.052 10.209 251.863 10.209 246.454H12.6088Z" fill="#F1C42E"/>
</g>
</g>
</g>
<defs>
<clipPath id="clip0_0_8719">
<rect width="104.39" height="316.8" fill="white" transform="translate(0.609863)"/>
</clipPath>
<clipPath id="clip1_0_8719">
<rect width="104.39" height="316.77" fill="white" transform="translate(0.609863 0.0302734)"/>
</clipPath>
</defs>
</svg>
