<svg width="196" height="86" viewBox="0 0 196 86" fill="none" xmlns="http://www.w3.org/2000/svg">
<path d="M184.268 85.0786L174.471 85.0786V75.2824L184.268 75.2823V85.0786ZM3.61141e-06 29.2804L121.718 29.2805V31.6801L0 31.68L3.61141e-06 29.2804ZM136.139 35.2545L180.217 79.3321L178.521 81.0289L134.443 36.9513L136.139 35.2545ZM121.718 29.2805C127.126 29.2805 132.314 31.4295 136.139 35.2545L134.443 36.9513C131.068 33.5762 126.49 31.6801 121.718 31.6801V29.2805Z" fill="#F1C42E"/>
<g clip-path="url(#clip0_111_28)">
<path d="M195.654 56.4893L185.858 56.4893V46.693L195.654 46.693V56.4893ZM11.3865 0.691036L133.104 0.691154V3.09074L11.3865 3.09062L11.3865 0.691036ZM147.526 6.66516L191.604 50.7427L189.907 52.4395L145.829 8.3619L147.526 6.66516ZM133.104 0.691154C138.513 0.691154 143.701 2.8401 147.526 6.66516L145.829 8.3619C142.454 4.98689 137.877 3.09074 133.104 3.09074V0.691154Z" fill="#F1C42E"/>
</g>
<defs>
<clipPath id="clip0_111_28">
<rect width="184.768" height="57.59" fill="white" transform="matrix(1 0 0 -1 11 57.5898)"/>
</clipPath>
</defs>
</svg>
