<svg width="139" height="79" viewBox="0 0 139 79" fill="none" xmlns="http://www.w3.org/2000/svg">
<g clip-path="url(#clip0_0_8060)">
<path d="M137.641 0.940186C138.286 0.940186 138.81 1.46379 138.81 2.10968C138.81 2.75556 138.286 3.27917 137.641 3.27917V0.940186ZM1.88306 77.0536V67.5047H11.4319V77.0536H1.88306ZM137.641 3.27917H84.5777V0.940186H137.641V3.27917ZM72.1733 8.41721L7.48444 73.1061L5.83053 71.4522L70.5194 6.76329L72.1733 8.41721ZM84.5777 3.27917C79.9252 3.27917 75.4632 5.12737 72.1733 8.41721L70.5194 6.76329C74.2479 3.03483 79.3048 0.940186 84.5777 0.940186V3.27917Z" fill="#F1C42E"/>
</g>
<defs>
<clipPath id="clip0_0_8060">
<rect width="138" height="77.1864" fill="white" transform="translate(0.810059 0.940186)"/>
</clipPath>
</defs>
</svg>
