<svg width="774" height="74" viewBox="0 0 774 74" fill="none" xmlns="http://www.w3.org/2000/svg">
<g clip-path="url(#clip0_21_4)">
<g clip-path="url(#clip1_21_4)">
<path d="M773.756 67.5419L767.542 73.7561L761.328 67.5419L767.542 61.3278L773.756 67.5419ZM710.807 66.4656H767.542V68.6183H710.807V66.4656ZM73.3133 0.809883H633.677V2.96253H73.3133V0.809883ZM646.947 6.50891L699.098 61.4371L697.537 62.9192L645.386 7.99101L646.947 6.50891ZM633.677 0.809883C638.695 0.809883 643.492 2.87029 646.947 6.50891L645.386 7.99101C642.338 4.78044 638.104 2.96253 633.677 2.96253V0.809883ZM710.807 68.6183C705.789 68.6183 700.992 66.5579 697.537 62.9192L699.098 61.4371C702.147 64.6477 706.379 66.4656 710.807 66.4656V68.6183Z" fill="#F1C42E"/>
</g>
</g>
<defs>
<clipPath id="clip0_21_4">
<rect width="774" height="73.19" fill="white" transform="matrix(-1 0 0 -1 774 74)"/>
</clipPath>
<clipPath id="clip1_21_4">
<rect width="700.687" height="73.19" fill="white" transform="matrix(-1 0 0 -1 774 74)"/>
</clipPath>
</defs>
</svg>
