<svg width="873" height="319" viewBox="0 0 873 319" fill="none" xmlns="http://www.w3.org/2000/svg">
<g clip-path="url(#clip0_111_29)">
<g clip-path="url(#clip1_111_29)">
<path d="M6.0923 175.067L0.22998 169.204L6.0923 163.341L11.9546 169.204L6.0923 175.067ZM5.07692 169.204L5.0769 118.636H7.10767L7.10769 169.204H5.07692ZM10.2264 106.337L38.8874 78.1106L40.3124 79.5575L11.6513 107.784L10.2264 106.337ZM5.0769 118.636C5.0769 114.012 6.93194 109.581 10.2264 106.337L11.6513 107.784C8.74448 110.646 7.10767 114.556 7.10767 118.636H5.0769Z" fill="#1B1B1B"/>
<path d="M5.07715 1.66529V0.649902H7.10792V1.66529H5.07715ZM40.1079 141.051L34.2456 135.188L40.1079 129.326L45.9702 135.188L40.1079 141.051ZM5.07715 10.6744V1.66529H7.10792V10.6744H5.07715ZM11.5689 21.4442L36.0675 45.9428L34.6315 47.3787L10.1329 22.8801L11.5689 21.4442ZM41.1233 58.1485V135.188H39.0925V58.1485H41.1233ZM36.0675 45.9428C39.3046 49.1799 41.1233 53.5704 41.1233 58.1485H39.0925C39.0925 54.1091 37.4878 50.2351 34.6315 47.3787L36.0675 45.9428ZM7.10792 10.6744C7.10792 14.7138 8.71258 18.5878 11.5689 21.4442L10.1329 22.8801C6.89577 19.643 5.07715 15.2525 5.07715 10.6744H7.10792Z" fill="#F1C42E"/>
</g>
</g>
<g clip-path="url(#clip2_111_29)">
<g clip-path="url(#clip3_111_29)">
<path d="M99.2439 213.458L105.458 207.244L111.672 213.458L105.458 219.672L99.2439 213.458ZM162.193 214.534H105.458V212.382H162.193V214.534ZM799.687 280.19H239.323V278.037H799.687V280.19ZM226.053 274.491L173.902 219.563L175.463 218.081L227.614 273.009L226.053 274.491ZM239.323 280.19C234.305 280.19 229.508 278.13 226.053 274.491L227.614 273.009C230.662 276.22 234.896 278.037 239.323 278.037V280.19ZM162.193 212.382C167.211 212.382 172.008 214.442 175.463 218.081L173.902 219.563C170.853 216.352 166.621 214.534 162.193 214.534V212.382Z" fill="#F1C42E"/>
</g>
</g>
<defs>
<clipPath id="clip0_111_29">
<rect width="66" height="206.39" fill="white" transform="translate(0 0.649902)"/>
</clipPath>
<clipPath id="clip1_111_29">
<rect width="66" height="174.646" fill="white" transform="translate(0 0.649902)"/>
</clipPath>
<clipPath id="clip2_111_29">
<rect width="774" height="73.19" fill="white" transform="translate(99 207)"/>
</clipPath>
<clipPath id="clip3_111_29">
<rect width="700.687" height="73.19" fill="white" transform="translate(99 207)"/>
</clipPath>
</defs>
</svg>
